<?xml version="1.0" encoding="UTF-8" standalone="no"?>
<!-- Uploaded to: SVG Repo, www.svgrepo.com, Generator: SVG Repo Mixer Tools -->

<svg
   width="180"
   height="150"
   viewBox="0 -4 10.8 9"
   version="1.1"
   id="svg1"
   sodipodi:docname="twitter.svg"
   inkscape:version="1.4 (86a8ad7, 2024-10-11)"
   xmlns:inkscape="http://www.inkscape.org/namespaces/inkscape"
   xmlns:sodipodi="http://sodipodi.sourceforge.net/DTD/sodipodi-0.dtd"
   xmlns="http://www.w3.org/2000/svg"
   xmlns:svg="http://www.w3.org/2000/svg"
   xmlns:rdf="http://www.w3.org/1999/02/22-rdf-syntax-ns#"
   xmlns:cc="http://creativecommons.org/ns#"
   xmlns:dc="http://purl.org/dc/elements/1.1/">
  <sodipodi:namedview
     id="namedview1"
     pagecolor="#ffffff"
     bordercolor="#000000"
     borderopacity="0.25"
     inkscape:showpageshadow="2"
     inkscape:pageopacity="0.0"
     inkscape:pagecheckerboard="0"
     inkscape:deskcolor="#d1d1d1"
     inkscape:zoom="3.915"
     inkscape:cx="91.826309"
     inkscape:cy="91.060026"
     inkscape:window-width="1920"
     inkscape:window-height="1001"
     inkscape:window-x="-9"
     inkscape:window-y="-9"
     inkscape:window-maximized="1"
     inkscape:current-layer="svg1" />
  <title
     id="title1">Twitter-color</title>
  <desc
     id="desc1">Created with Sketch.</desc>
  <defs
     id="defs1" />
  <g
     id="Icons"
     stroke="none"
     stroke-width="1"
     fill="none"
     fill-rule="evenodd"
     transform="matrix(0.225,0,0,0.225,0,-4)">
    <g
       id="Color-"
       transform="translate(-300,-164)"
       fill="#00aaec">
      <path
         d="m 348,168.73528 c -1.76369,0.80318 -3.66262,1.34634 -5.65452,1.58902 2.03416,-1.2481 3.595,-3.22715 4.33034,-5.58468 -1.90456,1.15565 -4.00915,1.99639 -6.25744,2.44709 C 338.62652,165.22499 336.0655,164 333.2312,164 c -5.43476,0 -9.84398,4.52149 -9.84398,10.09751 0,0.79162 0.0845,1.56013 0.25356,2.29974 -8.18454,-0.42181 -15.43934,-4.4377 -20.29935,-10.55399 -0.84803,1.49657 -1.33263,3.23294 -1.33263,5.08198 0,3.50163 1.73834,6.593 4.38106,8.40448 -1.61155,-0.0491 -3.13295,-0.50849 -4.46276,-1.25966 v 0.12423 c 0,4.89419 3.39496,8.97653 7.9028,9.90105 -0.8255,0.23691 -1.69607,0.35536 -2.59482,0.35536 -0.63392,0 -1.25375,-0.0607 -1.85385,-0.17912 1.25374,4.01011 4.88818,6.93102 9.1988,7.00903 -3.36961,2.71 -7.61824,4.32502 -12.23032,4.32502 -0.79451,0 -1.58056,-0.0462 -2.34971,-0.13867 4.35851,2.86023 9.53689,4.53304 15.09561,4.53304 18.11587,0 28.01902,-15.38462 28.01902,-28.72951 0,-0.43914 -0.008,-0.87829 -0.0254,-1.30877 1.92428,-1.42434 3.595,-3.20116 4.91072,-5.22644"
         id="Twitter" />
    </g>
  </g>
  <metadata
     id="metadata1">
    <rdf:RDF>
      <cc:Work
         rdf:about="">
        <dc:title>Twitter-color</dc:title>
      </cc:Work>
    </rdf:RDF>
  </metadata>
</svg>
